<svg xmlns="http://www.w3.org/2000/svg" viewBox="0 0 605 605"><title>agile-icon</title><g id="85f9923a-6537-4069-9d6a-ba36ef3e7ece" data-name="Layer 2"><circle cx="302.5" cy="302.5" r="302.5" style="fill:#00d68f"/></g><g id="7d6a1cc3-2ea4-49a3-87cb-1569b3886825" data-name="Layer 1"><path d="M941.72,691.28v15a104.27,104.27,0,1,0-58.29-17.81,104,104,0,0,0,58.29,17.81v-30a73.84,73.84,0,1,1,22.08-3.34,74,74,0,0,1-22.08,3.34v15Z" transform="translate(-639 -255)" style="fill:#fff"/><path d="M1033.34,441.87a103.19,103.19,0,0,0-14.85-39.81l-.33-.52,0,0,0,0a104.46,104.46,0,0,0-28.93-29.92A106.4,106.4,0,0,0,872.92,369h0l-.53.33a103.91,103.91,0,0,0-48.65,84.52,102.92,102.92,0,0,0,15.93,58.49l.34.53h0a104.47,104.47,0,0,0,33,32.6L888.84,520a74.44,74.44,0,0,1-23.56-23.26h0l-.24-.37a73.09,73.09,0,0,1-5-68.91,74.1,74.1,0,0,1,28.39-32.72l.39-.24h0a75.81,75.81,0,0,1,28-10.53,76.82,76.82,0,0,1,42.74,5.35,74.64,74.64,0,0,1,33.35,28.37h0l.24.38a73.16,73.16,0,0,1,10.55,28.26l29.67-4.45Z" transform="translate(-639 -255)" style="fill:#fff"/><polyline points="383.71 217.12 414.6 171.97 340.93 183.03 383.71 217.12" style="fill:#fff"/><polyline points="148.89 453.91 467.77 453.91 467.77 423.91 148.89 423.91" style="fill:#fff"/><polyline points="492.8 438.91 456.61 405.26 456.61 472.56 492.8 438.91" style="fill:#fff"/></g></svg>