<svg xmlns="http://www.w3.org/2000/svg" viewBox="0 0 256 301"><path fill="#fff" d="M78.4.86a8.78 8.78 0 0 0-7.63 13.06l9.52 17.2c-22.97 14.2-38.17 38.44-38.17 66.1v5.12A24 24 0 0 0 0 118.14v74a24 24 0 0 0 42.15 15.74v10.37a25.5 25.5 0 0 0 25.4 25.4H74v32.93a24 24 0 0 0 48.05 0v-32.9h11.16v32.9a24 24 0 0 0 48.08 0v-32.9h6.45a25.5 25.5 0 0 0 25.42-25.42V207.9a24 24 0 0 0 42.15-15.76v-74a24 24 0 0 0-42.16-15.75v-5.2c0-27.67-15.24-51.9-38.17-66.1l9.55-17.2a8.8 8.8 0 0 0-15.4-8.55l-10 18a91.84 91.84 0 0 0-63 0l-10-18A8.8 8.8 0 0 0 78.4.87z"/><path fill="#a4c639" d="M48.4 218.26a19.1 19.1 0 0 0 19.16 19.16h12.7v39.18a17.77 17.77 0 0 0 35.54 0v-39.2h23.67v39.2a17.77 17.77 0 0 0 35.53 0v-39.2h12.7a19.1 19.1 0 0 0 19.17-19.15V103.4H48.4zm182.84-117.9a17.66 17.66 0 0 0-17.77 17.77v74a17.77 17.77 0 1 0 35.53 0v-74a17.66 17.66 0 0 0-17.75-17.77zm-207.24 0a17.66 17.66 0 0 0-17.74 17.77v74a17.77 17.77 0 1 0 35.53 0v-74A17.66 17.66 0 0 0 24 100.36zm142.5-66.88l12.5-22.6a2.54 2.54 0 0 0-2.18-3.76 2.5 2.5 0 0 0-2.23 1.3L161.9 31.3a85.4 85.4 0 0 0-68.57 0L80.67 8.42a2.5 2.5 0 0 0-3.43-1 2.45 2.45 0 0 0-1 3.43l12.54 22.63C64.7 46 48.44 69.82 48.4 97.15h158.47c-.03-27.33-16.3-51.15-40.38-63.67zM91.06 68.15a6.6 6.6 0 1 1 6.6-6.6 6.66 6.66 0 0 1-6.6 6.6zm73.14 0a6.6 6.6 0 1 1 6.62-6.6 6.66 6.66 0 0 1-6.6 6.6z"/></svg>
