<svg xmlns="http://www.w3.org/2000/svg" viewBox="0 0 194.51 194.51"><defs><style>.cls-1{fill:url(#Dégradé_sans_nom_35)}.cls-2{fill:#fff}</style><linearGradient id="Dégradé_sans_nom_35" x1="48.62" y1="13.02" x2="145.89" y2="181.49" gradientUnits="userSpaceOnUse"><stop offset=".11" stop-color="#be96de"/><stop offset=".68" stop-color="#a478c6"/></linearGradient></defs><title>SQL</title><g id="Calque_2" data-name="Calque 2"><g id="Calque_1-2" data-name="Calque 1"><circle class="cls-1" cx="97.25" cy="97.25" r="97.25"/><path class="cls-2" d="M69.28 80.4a2.24 2.24 0 0 1-.77.93 1.93 1.93 0 0 1-1 .27 2.63 2.63 0 0 1-1.35-.47q-.75-.47-1.77-1a14.61 14.61 0 0 0-2.39-1 10.07 10.07 0 0 0-3.23-.47 9.49 9.49 0 0 0-2.93.41 6.2 6.2 0 0 0-2.11 1.13 4.51 4.51 0 0 0-1.28 1.73 5.69 5.69 0 0 0-.45 2.14 3.84 3.84 0 0 0 .86 2.56 7.15 7.15 0 0 0 2.27 1.75 21.09 21.09 0 0 0 3.22 1.29q1.8.57 3.68 1.22a35.6 35.6 0 0 1 3.69 1.5 12.79 12.79 0 0 1 3.22 2.17 9.83 9.83 0 0 1 2.27 3.2 11.13 11.13 0 0 1 .86 4.6 15 15 0 0 1-1 5.52 12.76 12.76 0 0 1-2.95 4.48 13.9 13.9 0 0 1-4.74 3 17.45 17.45 0 0 1-6.41 1.1 20.67 20.67 0 0 1-4.09-.41A21.45 21.45 0 0 1 49 114.9a20.11 20.11 0 0 1-3.46-1.8 17 17 0 0 1-2.87-2.35l2.33-3.88a3 3 0 0 1 .8-.71 2 2 0 0 1 1-.29 2.88 2.88 0 0 1 1.62.62q.87.62 2.06 1.37a15.76 15.76 0 0 0 2.8 1.37 10.79 10.79 0 0 0 3.87.62 7.93 7.93 0 0 0 5.35-1.64 5.89 5.89 0 0 0 1.9-4.71 4.37 4.37 0 0 0-.86-2.8 6.92 6.92 0 0 0-2.27-1.82 17 17 0 0 0-3.22-1.25q-1.8-.51-3.67-1.11a31.53 31.53 0 0 1-3.67-1.44 11.88 11.88 0 0 1-3.22-2.2 10 10 0 0 1-2.27-3.38 12.88 12.88 0 0 1-.86-5 12 12 0 0 1 3.71-8.63 13.66 13.66 0 0 1 4.47-2.8 16.27 16.27 0 0 1 6-1.05 20.31 20.31 0 0 1 7.1 1.2 16 16 0 0 1 5.54 3.37zM120 94.24a25.29 25.29 0 0 1-.6 5.58 22.8 22.8 0 0 1-1.73 5 20.78 20.78 0 0 1-2.75 4.26 19.63 19.63 0 0 1-3.7 3.41l11 12h-6.68a8.1 8.1 0 0 1-2.6-.39 5.09 5.09 0 0 1-2.12-1.44l-6.38-7a23.26 23.26 0 0 1-3.14.63 25.81 25.81 0 0 1-3.35.21 23.55 23.55 0 0 1-9-1.67 20.41 20.41 0 0 1-7-4.65 20.88 20.88 0 0 1-4.5-7.05 25.42 25.42 0 0 1 0-17.72A20.88 20.88 0 0 1 82 78.32a20.41 20.41 0 0 1 7-4.65A23.55 23.55 0 0 1 98 72a23.26 23.26 0 0 1 9 1.68 20.59 20.59 0 0 1 6.95 4.65 20.83 20.83 0 0 1 4.48 7 24.12 24.12 0 0 1 1.57 8.91zm-8.3 0a20.25 20.25 0 0 0-.95-6.42A13.58 13.58 0 0 0 108 83a11.73 11.73 0 0 0-4.32-3 16.16 16.16 0 0 0-11.48 0 11.83 11.83 0 0 0-4.35 3 13.64 13.64 0 0 0-2.75 4.83 21.9 21.9 0 0 0 0 12.85 13.48 13.48 0 0 0 2.75 4.81 11.92 11.92 0 0 0 4.35 3 16.16 16.16 0 0 0 11.48 0 11.81 11.81 0 0 0 4.32-3 13.43 13.43 0 0 0 2.72-4.81 20.25 20.25 0 0 0 .94-6.44zm22.74 15.07h17.42V116h-25.52V72.49h8.09z"/></g></g></svg>